<svg xmlns="http://www.w3.org/2000/svg" viewBox="0 0 480 600" fill="none" role="img" aria-label="Daily Vitality Complex supplement bottle">
  <defs>
    <linearGradient id="bottle" x1="240" y1="80" x2="240" y2="520" gradientUnits="userSpaceOnUse">
      <stop stop-color="#1a3d2e"/>
      <stop offset="1" stop-color="#0f261c"/>
    </linearGradient>
    <linearGradient id="cap" x1="240" y1="40" x2="240" y2="120" gradientUnits="userSpaceOnUse">
      <stop stop-color="#2d5a45"/>
      <stop offset="1" stop-color="#1a3d2e"/>
    </linearGradient>
    <linearGradient id="label" x1="160" y1="220" x2="320" y2="420" gradientUnits="userSpaceOnUse">
      <stop stop-color="#f7f5f0"/>
      <stop offset="1" stop-color="#ebe6dc"/>
    </linearGradient>
  </defs>
  <ellipse cx="240" cy="540" rx="120" ry="18" fill="#121212" opacity="0.08"/>
  <rect x="188" y="48" width="104" height="56" rx="8" fill="url(#cap)"/>
  <path d="M170 104c0-22 31-34 70-34s70 12 70 34v24c0 8-6 14-14 14H184c-8 0-14-6-14-14v-24z" fill="url(#cap)"/>
  <path d="M150 138h180c22 0 40 18 40 40v300c0 33-40 60-90 60s-90-27-90-60V178c0-22 18-40 40-40z" fill="url(#bottle)"/>
  <rect x="168" y="210" width="144" height="220" rx="12" fill="url(#label)"/>
  <text x="240" y="268" text-anchor="middle" font-family="Georgia, serif" font-size="18" font-weight="600" fill="#1a3d2e">Daily Vitality</text>
  <text x="240" y="300" text-anchor="middle" font-family="system-ui, sans-serif" font-size="13" fill="#3d5c4a" letter-spacing="2">COMPLEX</text>
  <text x="240" y="340" text-anchor="middle" font-family="system-ui, sans-serif" font-size="11" fill="#5a6b62">Daily Wellness</text>
  <text x="240" y="365" text-anchor="middle" font-family="system-ui, sans-serif" font-size="11" fill="#5a6b62">60 Capsules</text>
  <circle cx="240" cy="400" r="28" fill="#e8f0eb" stroke="#2d5a45" stroke-width="2"/>
  <path d="M228 400l8 8 16-16" stroke="#2d5a45" stroke-width="3" stroke-linecap="round" stroke-linejoin="round"/>
</svg>
